<mxfile host="app.diagrams.net" agent="Mozilla/5.0 (Windows NT 10.0; Win64; x64) AppleWebKit/537.36 (KHTML, like Gecko) Chrome/138.0.0.0 Safari/537.36" version="28.0.6">
  <diagram name="Page-1" id="U3XMAzyxrZ7kLZgz8v9U">
    <mxGraphModel dx="2216" dy="749" grid="1" gridSize="10" guides="1" tooltips="1" connect="1" arrows="1" fold="1" page="1" pageScale="1" pageWidth="827" pageHeight="1169" math="0" shadow="0">
      <root>
        <mxCell id="0" />
        <mxCell id="1" parent="0" />
        <mxCell id="rbyF6ZxrxwgmKT2iUZkg-7" value="Glue raw_crawler will identify the metadata of raw data in s3 raw and stores in glue catalog&lt;div&gt;&lt;br&gt;&lt;div&gt;&amp;nbsp;&amp;nbsp;&lt;/div&gt;&lt;/div&gt;" style="text;html=1;align=center;verticalAlign=middle;resizable=0;points=[];autosize=1;strokeColor=none;fillColor=none;" vertex="1" parent="1">
          <mxGeometry x="-180" y="130" width="510" height="60" as="geometry" />
        </mxCell>
        <mxCell id="rbyF6ZxrxwgmKT2iUZkg-9" value="" style="whiteSpace=wrap;html=1;aspect=fixed;" vertex="1" parent="1">
          <mxGeometry x="360" y="70" width="490" height="490" as="geometry" />
        </mxCell>
        <mxCell id="rbyF6ZxrxwgmKT2iUZkg-17" style="edgeStyle=orthogonalEdgeStyle;rounded=0;orthogonalLoop=1;jettySize=auto;html=1;" edge="1" parent="1" source="rbyF6ZxrxwgmKT2iUZkg-10" target="rbyF6ZxrxwgmKT2iUZkg-7">
          <mxGeometry relative="1" as="geometry" />
        </mxCell>
        <mxCell id="rbyF6ZxrxwgmKT2iUZkg-10" value="Raw crawler" style="rounded=0;whiteSpace=wrap;html=1;" vertex="1" parent="1">
          <mxGeometry x="545" y="130" width="120" height="60" as="geometry" />
        </mxCell>
        <mxCell id="rbyF6ZxrxwgmKT2iUZkg-25" style="edgeStyle=orthogonalEdgeStyle;rounded=0;orthogonalLoop=1;jettySize=auto;html=1;" edge="1" parent="1" source="rbyF6ZxrxwgmKT2iUZkg-12" target="rbyF6ZxrxwgmKT2iUZkg-21">
          <mxGeometry relative="1" as="geometry" />
        </mxCell>
        <mxCell id="rbyF6ZxrxwgmKT2iUZkg-12" value="Glue" style="rounded=0;whiteSpace=wrap;html=1;" vertex="1" parent="1">
          <mxGeometry x="545" y="220" width="120" height="60" as="geometry" />
        </mxCell>
        <mxCell id="rbyF6ZxrxwgmKT2iUZkg-13" value="MirrorCrawler" style="rounded=0;whiteSpace=wrap;html=1;" vertex="1" parent="1">
          <mxGeometry x="545" y="320" width="120" height="60" as="geometry" />
        </mxCell>
        <mxCell id="rbyF6ZxrxwgmKT2iUZkg-22" style="edgeStyle=orthogonalEdgeStyle;rounded=0;orthogonalLoop=1;jettySize=auto;html=1;entryX=1.009;entryY=0.413;entryDx=0;entryDy=0;entryPerimeter=0;" edge="1" parent="1" source="rbyF6ZxrxwgmKT2iUZkg-14" target="rbyF6ZxrxwgmKT2iUZkg-20">
          <mxGeometry relative="1" as="geometry">
            <mxPoint x="320" y="450" as="targetPoint" />
          </mxGeometry>
        </mxCell>
        <mxCell id="rbyF6ZxrxwgmKT2iUZkg-14" value="Copy to redshift" style="rounded=0;whiteSpace=wrap;html=1;" vertex="1" parent="1">
          <mxGeometry x="545" y="420" width="120" height="60" as="geometry" />
        </mxCell>
        <mxCell id="rbyF6ZxrxwgmKT2iUZkg-19" value="Mirror_crawler will identify the metadata in processed files in s3 mirror and stoes in glue catalog" style="text;html=1;align=center;verticalAlign=middle;resizable=0;points=[];autosize=1;strokeColor=none;fillColor=none;" vertex="1" parent="1">
          <mxGeometry x="-200" y="335" width="530" height="30" as="geometry" />
        </mxCell>
        <mxCell id="rbyF6ZxrxwgmKT2iUZkg-20" value="copy the files in s3 mirror to redshift according to source names" style="text;html=1;align=center;verticalAlign=middle;resizable=0;points=[];autosize=1;strokeColor=none;fillColor=none;" vertex="1" parent="1">
          <mxGeometry x="-30" y="435" width="360" height="30" as="geometry" />
        </mxCell>
        <mxCell id="rbyF6ZxrxwgmKT2iUZkg-21" value="process the raw files according to source names it will store the processed files in s3 mirror" style="text;html=1;align=center;verticalAlign=middle;resizable=0;points=[];autosize=1;strokeColor=none;fillColor=none;" vertex="1" parent="1">
          <mxGeometry x="-190" y="235" width="510" height="30" as="geometry" />
        </mxCell>
        <mxCell id="rbyF6ZxrxwgmKT2iUZkg-24" style="edgeStyle=orthogonalEdgeStyle;rounded=0;orthogonalLoop=1;jettySize=auto;html=1;entryX=0.997;entryY=0.653;entryDx=0;entryDy=0;entryPerimeter=0;" edge="1" parent="1" source="rbyF6ZxrxwgmKT2iUZkg-13" target="rbyF6ZxrxwgmKT2iUZkg-19">
          <mxGeometry relative="1" as="geometry" />
        </mxCell>
        <mxCell id="rbyF6ZxrxwgmKT2iUZkg-26" value="&lt;h1 style=&quot;margin-top: 0px;&quot;&gt;STEP FUNCTION&lt;/h1&gt;" style="text;html=1;whiteSpace=wrap;overflow=hidden;rounded=0;" vertex="1" parent="1">
          <mxGeometry x="500" y="10" width="240" height="50" as="geometry" />
        </mxCell>
      </root>
    </mxGraphModel>
  </diagram>
</mxfile>
